<!--?xml version="1.0" encoding="utf-8"?-->
<!-- Generator: Adobe Illustrator 18.1.1, SVG Export Plug-In . SVG Version: 6.00 Build 0)  -->

<svg version="1.1" id="_x32_" xmlns="http://www.w3.org/2000/svg" xmlns:xlink="http://www.w3.org/1999/xlink" x="0px" y="0px" viewBox="0 0 512 512" style="width: 256px; height: 256px; opacity: 1;" xml:space="preserve">
<style type="text/css">
	.st0{fill:#4B4B4B;}
</style>
<g>
	<path class="st0" d="M483.244,109.107c-17.726-17.749-42.359-28.764-69.424-28.756H98.18
		c-27.065-0.008-51.706,11.006-69.424,28.756C11.007,126.825-0.008,151.459,0,178.531v154.937
		c-0.008,27.064,11.007,51.698,28.756,69.423c17.718,17.742,42.359,28.765,69.424,28.757H413.82
		c27.065,0.008,51.698-11.015,69.424-28.757c17.741-17.726,28.764-42.359,28.756-69.423V178.531
		C512.008,151.459,500.985,126.825,483.244,109.107z M483.464,333.468c-0.007,19.275-7.773,36.6-20.4,49.244
		c-12.651,12.627-29.968,20.4-49.243,20.4H98.18c-19.276,0-36.6-7.774-49.243-20.4c-12.628-12.644-20.393-29.968-20.4-49.244
		V178.531c0.007-19.283,7.773-36.6,20.4-49.252c12.643-12.628,29.968-20.392,49.243-20.4H413.82
		c19.276,0.008,36.6,7.773,49.243,20.4c12.628,12.651,20.393,29.968,20.4,49.252V333.468z" style="fill: rgb(0, 0, 0);"></path>
	<rect x="78.463" y="310.384" class="st0" width="267.499" height="53.5" style="fill: rgb(0, 0, 0);"></rect>
	<rect x="78.463" y="157.029" class="st0" width="355.074" height="17.836" style="fill: rgb(0, 0, 0);"></rect>
	<rect x="78.463" y="205.179" class="st0" width="355.074" height="17.836" style="fill: rgb(0, 0, 0);"></rect>
	<rect x="78.463" y="253.329" class="st0" width="355.074" height="17.836" style="fill: rgb(0, 0, 0);"></rect>
	<circle class="st0" cx="379.848" cy="334.569" r="13.375" style="fill: rgb(0, 0, 0);"></circle>
	<circle class="st0" cx="420.862" cy="334.569" r="13.375" style="fill: rgb(0, 0, 0);"></circle>
</g>
</svg>
