<svg id="Capa_1" enable-background="new 0 0 468 468" height="512" viewBox="0 0 468 468" width="512" xmlns="http://www.w3.org/2000/svg"><path d="m313.754 377.493c0-7.45-7.9-18.61-18.815-20.333-.095 14.056-2.965 27.955-8.443 40.9h5.32c12.929-1.093 21.938-9.526 21.938-20.567z"/><path d="m290.914 209.775h-113.828c3.067 28.111 27.418 50.079 56.914 50.079s53.847-21.968 56.914-50.079z"/><path d="m172.624 354.35c.064-5.827.577-11.64 1.537-17.387.504-3.615 3.551-6.332 7.2-6.42h104.85c3.647.089 6.694 2.804 7.2 6.417.446 2.66.778 5.357 1.031 8.071 8.218.781 15.866 4.543 21.5 10.577 6.14 6.331 9.805 14.512 9.805 21.885 0 17.36-13.975 31.05-33.229 32.55l-.232.018h-12.11c-3.407 5.442-7.529 10.401-12.255 14.746h111.579v-215.032h-76.538c-2.39 26.765-20.586 49.138-45.343 58v28.147c-.016 4.515-3.685 8.166-8.2 8.159h-28.435c-4.515.007-8.184-3.644-8.2-8.159v-27.349c-25.974-8.239-45.28-31.175-47.747-58.8h-76.537v215.034h111c-16.766-15.251-27.2-41.329-26.876-70.457z"/><path d="m282.119 342.543h-96.658c-.514 3.961-.793 7.949-.837 11.943-.374 33.175 15.347 62.54 37.492 70.321h23.242c21.839-7.728 37.605-36.6 37.605-69.153.001-4.384-.281-8.763-.844-13.111z"/><path d="m379.5 436.807h-158.333c-.025 0-.049 0-.074 0s-.05 0-.075 0h-132.518v31.193h291z"/><path d="m224.785 271.234v20.844h20.834v-21.2c-6.887 1.169-13.911 1.29-20.834.356z"/><path d="m379.5 131.743c0-72.643-59.1-131.743-131.742-131.743h-27.515c-72.643 0-131.743 59.1-131.743 131.743v20.686h291zm-145.5-20.474c-21.244 0-38.527-17.014-38.527-37.927s17.283-37.928 38.527-37.928 38.528 17.015 38.528 37.928-17.284 37.927-38.528 37.927z"/><path d="m88.5 164.429h291v33.347h-291z"/><path d="m234 47.414c-14.627 0-26.527 11.631-26.527 25.928s11.9 25.927 26.527 25.927 26.528-11.63 26.528-25.927-11.9-25.928-26.528-25.928z"/></svg>