<?xml version="1.0"?>
<svg xmlns="http://www.w3.org/2000/svg" id="Glyph" viewBox="0 0 512 512" width="512" height="512"><path d="M348.477,102A39.9,39.9,0,0,1,384,80h16a40.047,40.047,0,0,1,40,40V280a40.047,40.047,0,0,1-40,40H388.841c.426,5.69.789,10.988,1.114,16H400a56.065,56.065,0,0,0,56-56V120a56.065,56.065,0,0,0-56-56H326.867a32.466,32.466,0,0,1,.812,4.462C335.505,76.437,342.415,87.937,348.477,102Z"/><path d="M92.66,120H59.816l19.569,48.921A445.3,445.3,0,0,1,92.66,120Z"/><path d="M365.051,243.906C351.164,136.5,331.527,95.336,316.762,80H131.238c-6,6.235-12.813,16.863-19.713,34.354a7.71,7.71,0,0,1-.507,1.286c-9.908,25.593-19.966,65.6-28.069,128.266C75.965,297.922,73.2,348.656,72.328,368H375.672C374.8,348.656,372.035,297.922,365.051,243.906Z"/><path d="M112,416H336A40.069,40.069,0,0,0,375.2,384H72.805A40.069,40.069,0,0,0,112,416Z"/><path d="M224,32c-44.609,0-77.586,15.594-85.938,32H309.938C301.586,47.594,268.609,32,224,32Z"/><path d="M391.43,480A56.088,56.088,0,0,0,336,432H112a56.088,56.088,0,0,0-55.43,48ZM200,448h48a8,8,0,0,1,0,16H200a8,8,0,0,1,0-16Z"/></svg>
