<!--?xml version="1.0" encoding="utf-8"?-->
<!-- Generator: Adobe Illustrator 18.1.1, SVG Export Plug-In . SVG Version: 6.00 Build 0)  -->

<svg version="1.1" id="_x32_" xmlns="http://www.w3.org/2000/svg" xmlns:xlink="http://www.w3.org/1999/xlink" x="0px" y="0px" viewBox="0 0 512 512" style="width: 256px; height: 256px; opacity: 1;" xml:space="preserve">
<style type="text/css">
	.st0{fill:#4B4B4B;}
</style>
<g>
	<path class="st0" d="M340.91,97.485c-32.132,0-58.176,25.348-58.176,56.608c0,31.274,26.045,56.608,58.176,56.608
		c32.135,0,58.181-25.333,58.181-56.608C399.091,122.833,373.045,97.485,340.91,97.485z" style="fill: rgb(0, 0, 0);"></path>
	<path class="st0" d="M15.418,261.018c24.698,0,45.957,1.729,72.333,5.636V42.882c-31.416,3.922-54.81,5.679-72.333,7.437V261.018z" style="fill: rgb(0, 0, 0);"></path>
	<path class="st0" d="M340.91,0c-32.236,0-132.513,22.639-161.961,28.297c-24.792,4.772-46.676,8.382-66.039,11.185v231.24
		c18.485,3.21,39.831,7.277,66.039,12.318c29.448,5.65,129.725,28.297,161.961,28.297c85.976,0,155.672-69.696,155.672-155.668
		C496.582,69.696,426.886,0,340.91,0z M340.91,248.439c-51.236,0-92.77-41.53-92.77-92.77c0-51.241,41.534-92.77,92.77-92.77
		c51.241,0,92.775,41.529,92.775,92.77C433.685,206.909,392.151,248.439,340.91,248.439z" style="fill: rgb(0, 0, 0);"></path>
	<path class="st0" d="M340.91,333.358c-4.281,0-9.471-0.334-15.386-0.93c0.53,11.083,1.554,21.237,3.356,28.442
		c6.994,27.984,30.316,39.649,25.649,60.639c-4.659,20.983-15.557,29.496-4.659,60.625c16.324,46.643,100.276,37.318,97.942-18.651
		l-15.006-155.777C405.972,323.975,374.52,333.358,340.91,333.358z" style="fill: rgb(0, 0, 0);"></path>
</g>
</svg>
