<!--?xml version="1.0" encoding="utf-8"?-->
<!-- Generator: Adobe Illustrator 18.1.1, SVG Export Plug-In . SVG Version: 6.00 Build 0)  -->

<svg version="1.1" id="_x32_" xmlns="http://www.w3.org/2000/svg" xmlns:xlink="http://www.w3.org/1999/xlink" x="0px" y="0px" viewBox="0 0 512 512" style="width: 256px; height: 256px; opacity: 1;" xml:space="preserve">
<style type="text/css">
	.st0{fill:#4B4B4B;}
</style>
<g>
	<path class="st0" d="M324.6,146.46H89.259c-10.577,0-19.159,8.582-19.159,19.159v160.722c0,10.577,8.582,19.159,19.159,19.159
		H324.6c10.577,0,19.159-8.582,19.159-19.159V165.619C343.759,155.042,335.177,146.46,324.6,146.46z M103.899,229.815v-30.396
		c0-10.577,8.582-19.159,19.159-19.159h30.396L103.899,229.815z" style="fill: rgb(0, 0, 0);"></path>
	<path class="st0" d="M470.924,72.605H41.075C18.382,72.612,0.008,90.986,0,113.68v265.855
		c0.008,22.679,18.382,41.068,41.075,41.075h23.392v18.785h47.574V420.61h287.925v18.785h47.56V420.61h23.398
		c22.694-0.008,41.068-18.396,41.076-41.075V113.68C511.992,90.986,493.618,72.612,470.924,72.605z M489.467,379.535
		c-0.022,10.232-8.304,18.52-18.543,18.542H41.075c-10.239-0.022-18.52-8.31-18.542-18.542V113.68
		c0.022-10.246,8.304-18.52,18.542-18.542h429.849c10.24,0.022,18.521,8.296,18.543,18.542V379.535z" style="fill: rgb(0, 0, 0);"></path>
	<path class="st0" d="M396.299,314.988c-7.863,0-14.237,6.367-14.237,14.244c0,7.863,6.374,14.23,14.237,14.23
		c7.87,0,14.244-6.366,14.244-14.23C410.543,321.354,404.169,314.988,396.299,314.988z" style="fill: rgb(0, 0, 0);"></path>
	<path class="st0" d="M396.299,258.655c-7.863,0-14.237,6.367-14.237,14.244c0,7.863,6.374,14.23,14.237,14.23
		c7.87,0,14.244-6.366,14.244-14.23C410.543,265.022,404.169,258.655,396.299,258.655z" style="fill: rgb(0, 0, 0);"></path>
	<path class="st0" d="M453.408,314.988c-7.863,0-14.237,6.367-14.237,14.244c0,7.863,6.374,14.23,14.237,14.23
		c7.871,0,14.245-6.366,14.245-14.23C467.653,321.354,461.279,314.988,453.408,314.988z" style="fill: rgb(0, 0, 0);"></path>
	<path class="st0" d="M453.408,258.655c-7.863,0-14.237,6.367-14.237,14.244c0,7.863,6.374,14.23,14.237,14.23
		c7.871,0,14.245-6.366,14.245-14.23C467.653,265.022,461.279,258.655,453.408,258.655z" style="fill: rgb(0, 0, 0);"></path>
	<rect x="382.531" y="148.969" class="st0" width="85.122" height="45.066" style="fill: rgb(0, 0, 0);"></rect>
</g>
</svg>
