<svg id="conventional_x5F_oven" enable-background="new 0 0 300 300" height="512" viewBox="0 0 300 300" width="512" xmlns="http://www.w3.org/2000/svg"><g><path d="m260 62h-220c-2.209 0-4 1.791-4 4v148c0 2.209 1.791 4 4 4h28v16c0 2.209 1.791 4 4 4s4-1.791 4-4v-16h144v16c0 2.209 1.791 4 4 4s4-1.791 4-4v-16h32c2.209 0 4-1.791 4-4v-148c0-2.209-1.791-4-4-4zm-216 8h168v140h-168zm212 140h-36v-140h36z"/><path d="m196.138 190.414v-100.414c0-2.209-1.791-4-4-4h-128.138c-2.209 0-4 1.791-4 4v100.414c0 2.209 1.791 4 4 4h128.138c2.209 0 4-1.791 4-4zm-128.138-44.431c-.004.769.213 1.548.672 2.236 1.224 1.837 3.708 2.337 5.547 1.109l10.372-6.915 22.145 7.382c.898.299 1.873.271 2.75-.081l18.535-7.414 19.107 7.429c.957.37 2.022.361 2.973-.03l17.739-7.307 14.371 7.187c.574.287 1.185.423 1.786.423 1.467 0 2.88-.811 3.581-2.212.987-1.977.187-4.379-1.789-5.367l-16-8c-1.035-.517-2.241-.561-3.312-.12l-17.942 7.39-19.085-7.42c-.945-.366-1.995-.36-2.935.015l-18.64 7.456-22.61-7.537c-1.168-.39-2.455-.218-3.483.467l-12 8c-1.148.765-1.772 2.021-1.781 3.304v-19.978h120.138v28h-120.139zm0-51.983h120.138v24h-120.138zm0 92.414v-24.414h120.138v24.414z"/><path d="m237.727 116.043c6.269 0 11.368-5.1 11.368-11.367 0-6.269-5.1-11.368-11.368-11.368s-11.367 5.1-11.367 11.368c-.001 6.267 5.099 11.367 11.367 11.367zm0-14.735c1.857 0 3.368 1.511 3.368 3.368 0 1.856-1.511 3.367-3.368 3.367-1.856 0-3.367-1.511-3.367-3.367-.001-1.858 1.51-3.368 3.367-3.368z"/><path d="m237.727 151.153c6.269 0 11.368-5.1 11.368-11.368s-5.1-11.367-11.368-11.367-11.367 5.1-11.367 11.367c-.001 6.269 5.099 11.368 11.367 11.368zm0-14.735c1.857 0 3.368 1.511 3.368 3.367 0 1.857-1.511 3.368-3.368 3.368-1.856 0-3.367-1.511-3.367-3.368-.001-1.856 1.51-3.367 3.367-3.367z"/><path d="m237.727 188.474c6.269 0 11.368-5.1 11.368-11.367 0-6.269-5.1-11.368-11.368-11.368s-11.367 5.1-11.367 11.368c-.001 6.267 5.099 11.367 11.367 11.367zm0-14.736c1.857 0 3.368 1.511 3.368 3.368 0 1.856-1.511 3.367-3.368 3.367-1.856 0-3.367-1.511-3.367-3.367-.001-1.857 1.51-3.368 3.367-3.368z"/></g></svg>