<!--?xml version="1.0" encoding="utf-8"?-->
<!-- Generator: Adobe Illustrator 18.1.1, SVG Export Plug-In . SVG Version: 6.00 Build 0)  -->

<svg version="1.1" id="_x32_" xmlns="http://www.w3.org/2000/svg" xmlns:xlink="http://www.w3.org/1999/xlink" x="0px" y="0px" viewBox="0 0 512 512" style="width: 256px; height: 256px; opacity: 1;" xml:space="preserve">
<style type="text/css">
	.st0{fill:#4B4B4B;}
</style>
<g>
	<path class="st0" d="M412.15,23.246C397.857,8.915,377.881-0.008,356.027,0H155.973c-21.854-0.008-41.83,8.915-56.123,23.246
		C85.511,37.546,76.588,57.523,76.596,79.377v353.246c-0.008,21.854,8.915,41.831,23.253,56.123
		c14.293,14.338,34.27,23.261,56.123,23.254h200.054c21.854,0.007,41.83-8.916,56.123-23.254
		c14.338-14.292,23.261-34.27,23.254-56.123V79.377C435.411,57.523,426.488,37.546,412.15,23.246z M394.004,432.623
		c-0.008,10.546-4.216,19.915-11.123,26.854c-6.939,6.907-16.3,11.115-26.854,11.123H155.973
		c-10.546-0.008-19.915-4.216-26.853-11.123c-6.9-6.939-11.116-16.308-11.123-26.854V272.1h276.008V432.623z M394.004,239.9H117.996
		V79.377c0.007-10.547,4.223-19.916,11.123-26.854c6.938-6.908,16.308-11.115,26.853-11.123h200.054
		c10.554,0.008,19.915,4.216,26.854,11.123c6.908,6.938,11.115,16.307,11.123,26.854V239.9z" style="fill: rgb(0, 0, 0);"></path>
	<rect x="162.85" y="117.092" class="st0" width="18.4" height="64.4" style="fill: rgb(0, 0, 0);"></rect>
	<rect x="162.85" y="330.507" class="st0" width="18.4" height="64.4" style="fill: rgb(0, 0, 0);"></rect>
</g>
</svg>
