<svg height="448pt" viewBox="0 0 448 448" width="448pt" xmlns="http://www.w3.org/2000/svg"><path d="m192 192v96h64v-96zm48 64h-32v-16h32zm0-32h-32v-16h32zm0 0"/><path d="m432 408v-216h-160v112h-96v-112h-160v216c0 4.417969 3.582031 8 8 8h400c4.417969 0 8-3.582031 8-8zm-208 0c-26.507812 0-48-21.492188-48-48s21.492188-48 48-48 48 21.492188 48 48c-.027344 26.5-21.5 47.972656-48 48zm168-184h-16v-16h16zm24 24h-16v-16h16zm0-24h-16v-16h16zm0 0"/><path d="m40 432h368v16h-368zm0 0"/><path d="m256 360c0 17.671875-14.328125 32-32 32s-32-14.328125-32-32 14.328125-32 32-32 32 14.328125 32 32zm0 0"/><path d="m0 160h448v16h-448zm0 0"/><path d="m168 16h112v-8c0-4.417969-3.582031-8-8-8h-96c-4.417969 0-8 3.582031-8 8zm0 0"/><path d="m448 120c-.058594-48.578125-39.421875-87.941406-88-88h-272c-48.578125.058594-87.9414062 39.421875-88 88v24h448zm-360-56c-30.914062.035156-55.964844 25.085938-56 56h-16c.042969-39.746094 32.253906-71.957031 72-72zm0 0"/></svg>