<!--?xml version="1.0" encoding="utf-8"?-->
<!-- Generator: Adobe Illustrator 18.1.1, SVG Export Plug-In . SVG Version: 6.00 Build 0)  -->

<svg version="1.1" id="_x32_" xmlns="http://www.w3.org/2000/svg" xmlns:xlink="http://www.w3.org/1999/xlink" x="0px" y="0px" viewBox="0 0 512 512" style="width: 256px; height: 256px; opacity: 1;" xml:space="preserve">
<style type="text/css">
	.st0{fill:#4B4B4B;}
</style>
<g>
	<path class="st0" d="M290.393,245.455c-8.026,0-11.531,2.994-18.542,9.683c-8.026,7.712-18.98,18.28-39.676,18.28
		c-20.762,0-31.724-10.567-39.749-18.28c-7.011-6.689-10.443-9.683-18.534-9.683c0.701,47.644,39.552,86.056,87.393,86.056
		c38.091,0,70.443-24.333,82.42-58.291c-17.512-1.526-27.386-11.013-34.776-18.082C301.925,248.449,298.485,245.455,290.393,245.455
		z" style="fill: rgb(0, 0, 0);"></path>
	<path class="st0" d="M408.041,87.203c7.391,0,13.378-5.988,13.378-13.372c0-7.391-5.988-13.379-13.378-13.379
		c-7.39,0-13.379,5.988-13.379,13.379C394.663,81.214,400.651,87.203,408.041,87.203z" style="fill: rgb(0, 0, 0);"></path>
	<path class="st0" d="M148.791,93.855h214.411c5.667,0,10.319-4.527,10.509-10.129h0.058V50.52H138.217v33.206
		C138.48,89.328,143.124,93.855,148.791,93.855z" style="fill: rgb(0, 0, 0);"></path>
	<path class="st0" d="M387.528,202.134c-0.767,0-1.585,0.073-2.359,0.132c-18.148-52.361-67.894-90.073-126.368-90.073
		c-73.7,0-133.642,60.014-133.642,133.7c0,73.7,59.941,133.642,133.642,133.642c58.473,0,108.286-37.705,126.368-90.132
		c0.898,0.19,1.848,0.263,2.804,0.263c10.575-0.073,42.298-4.594,42.298-15.175v-56.809
		C430.271,207.174,398.102,202.076,387.528,202.134z M258.801,351.704c-58.35,0-105.804-47.461-105.804-105.811
		c0-58.342,47.454-105.796,105.804-105.796c58.342,0,105.796,47.454,105.796,105.796
		C364.597,304.242,317.143,351.704,258.801,351.704z" style="fill: rgb(0, 0, 0);"></path>
	<path class="st0" d="M473.847,23.785l-10.333,4.36l10.333-4.374c-2.965-7.004-7.894-12.926-14.102-17.11l0.811,0.54l-0.781-0.526
		C453.538,2.439,445.972,0,437.968,0H74.025C68.694,0,63.538,1.088,58.85,3.074c-6.996,2.958-12.919,7.88-17.11,14.08
		c-4.199,6.2-6.653,13.758-6.653,21.792v376.11l2.498,4.352l0.037,0.058c0.095,0.161,2.329,4.002,5.996,9.633l-0.007-0.022
		c2.76,4.25,6.353,9.538,10.567,15.16l-0.015-0.014c3.163,4.228,6.668,8.646,10.458,12.969c5.696,6.471,12.028,12.824,19.264,18.053
		l0.036,0.022c3.63,2.593,7.588,4.981,12.02,6.814l-0.022-0.007c1.285,0.533,2.672,0.971,4.067,1.394
		c2.841,6.149,6.909,11.605,11.889,16.052c4.338,3.87,9.362,6.996,14.906,9.143c5.535,2.161,11.574,3.337,17.804,3.337
		c6.237,0,12.269-1.176,17.812-3.322l0.015-0.008c8.281-3.235,15.482-8.61,20.879-15.504c1.92-2.447,3.578-5.112,5.025-7.916
		h135.416c2.768,5.404,6.419,10.268,10.896,14.262c4.33,3.878,9.369,6.996,14.898,9.151c5.543,2.161,11.582,3.337,17.812,3.337
		c6.244,0,12.284-1.168,17.834-3.322c8.325-3.243,15.504-8.646,20.893-15.511c2.322-2.965,4.163-6.273,5.755-9.728
		c4.769-1.445,9.077-3.512,12.868-5.922l0.014-0.008c3.732-2.373,7.157-5.06,10.385-7.901c5.638-4.98,10.757-10.531,15.394-16.088
		c6.937-8.332,12.802-16.716,17.008-23.084c2.11-3.184,3.797-5.878,4.98-7.799c0.584-0.957,1.051-1.724,1.373-2.264l0.365-0.62
		l0.088-0.138h-0.008l1.117-1.921l1.511-2.607V38.946C476.914,33.6,475.819,28.451,473.847,23.785z M164.843,473.544
		c-1.914,3.622-4.79,6.682-8.281,8.828c-3.491,2.133-7.559,3.36-11.977,3.367c-2.936,0-5.718-0.547-8.288-1.54
		c-3.834-1.505-7.193-4.016-9.713-7.23c-1.935-2.483-3.366-5.353-4.17-8.486h44.364
		C166.333,470.265,165.683,471.959,164.843,473.544z M382.605,479.934c-2.023,1.811-4.374,3.257-6.937,4.257
		c-2.571,0.993-5.368,1.548-8.333,1.548c-2.943,0-5.725-0.547-8.281-1.54c-3.848-1.505-7.193-4.016-9.706-7.222
		c-1.928-2.476-3.352-5.346-4.14-8.494h44.321C388.404,472.982,385.965,476.94,382.605,479.934z M410.262,484.001
		c0.007,0,0.014-0.007,0.022-0.007c0.014,0,0.022,0,0.037-0.007L410.262,484.001z M445.329,416.341
		c-2.636,3.972-5.952,8.763-9.698,13.67c-2.804,3.681-5.856,7.434-9.011,10.954c-4.726,5.288-9.742,10.056-14.372,13.292
		c-2.315,1.621-4.52,2.848-6.47,3.622c-1.95,0.789-3.615,1.11-4.929,1.11h-4.689h-5.316h-46.95h-6.324H168.093h-47.038h-9.976
		c-0.81,0-1.738-0.116-2.797-0.395c-1.972-0.511-4.374-1.599-6.959-3.242c-2.264-1.446-4.667-3.294-7.084-5.434
		c-4.258-3.754-8.574-8.384-12.583-13.211c-6.039-7.245-11.407-14.913-15.248-20.733l-0.774-1.183h380.711L445.329,416.341z
		 M450.646,405.292H61.348V38.946c0-1.775,0.35-3.425,0.993-4.937c0.956-2.264,2.57-4.22,4.601-5.587
		c2.03-1.366,4.425-2.154,7.084-2.161h363.943c1.774,0,3.418,0.358,4.93,0.993c2.271,0.956,4.228,2.57,5.587,4.608
		c1.373,2.03,2.154,4.426,2.161,7.084V405.292z" style="fill: rgb(0, 0, 0);"></path>
</g>
</svg>
